<?xml version="1.0" encoding="UTF-8" standalone="no"?>
<svg
   viewBox="0 0 128 128"
   version="1.1"
   id="svg6"
   sodipodi:docname="heart-wings.svg"
   inkscape:version="1.1.1 (3bf5ae0d25, 2021-09-20)"
   width="128"
   height="128"
   xmlns:inkscape="http://www.inkscape.org/namespaces/inkscape"
   xmlns:sodipodi="http://sodipodi.sourceforge.net/DTD/sodipodi-0.dtd"
   xmlns="http://www.w3.org/2000/svg"
   xmlns:svg="http://www.w3.org/2000/svg">
  <defs
     id="defs10" />
  <sodipodi:namedview
     id="namedview8"
     pagecolor="#ffffff"
     bordercolor="#666666"
     borderopacity="1.0"
     inkscape:pageshadow="2"
     inkscape:pageopacity="0.0"
     inkscape:pagecheckerboard="0"
     showgrid="false"
     inkscape:snap-object-midpoints="true"
     inkscape:zoom="4.8226891"
     inkscape:cx="30.791949"
     inkscape:cy="77.653771"
     inkscape:window-width="2560"
     inkscape:window-height="1417"
     inkscape:window-x="1912"
     inkscape:window-y="-8"
     inkscape:window-maximized="1"
     inkscape:current-layer="svg6"
     width="128px" />
  <path
     id="path34"
     style="fill:#ffffff;fill-rule:evenodd;stroke:#000000;stroke-width:2;stroke-linecap:round;stroke-linejoin:round"
     d="m 84.040817,85.068413 a 20,20 0 0 1 -20,19.999997 20,20 0 0 1 -20,-19.999997 20,20 0 0 1 20,-20 20,20 0 0 1 20,20 z M 48.279476,72.838534 c -1.449218,-1.237437 -2.923686,-2.500497 -4.410156,-3.818866 -8.412,-7.45925 -16.9945,-16.4035 -17.3575,-28.2075 -5e-4,-0.0125 0,-0.025 -5e-4,-0.0375 -4.757359,-5.76688 -9.407289,-11.81764 -12.87875,-17.253 v 0 c -3.90575,18.721 5.105,30.9 16.0315,37.64 -8.26575,-1.9525 -16.263,-4.87075 -24.5625,-9.21125 6.375,19.372 20.29125,23.954 32.4765,22.6875 -6.73325,3.563 -13.848,6.3255 -20.98425,8.1955 11.209348,6.963755 20.461349,6.650451 27.505565,3.012286 m 39.880296,0.04053 c 7.033953,3.60004 16.258609,3.885243 27.427139,-3.052818 -7.13575,-1.87 -14.245,-4.6325 -20.9775,-8.195 12.18425,1.264 26.095,-3.32 32.469,-22.6875 -8.29925,4.34075 -16.29675,7.259 -24.5625,9.21125 13.0915,-12.434587 18.33668,-25.214045 16.03175,-37.6405 v 0 c -3.76,5.92625 -8.092,11.73575 -12.87875,17.24825 0,0.0065 7.5e-4,0.0125 10e-4,0.0195 0.347,11.49175 -8.369,20.665 -16.992,28.3465 -1.506986,1.34238 -3.019639,2.642924 -4.49556,3.902307 m -3.10707,-3.269571 c 1.529034,-1.302021 3.080909,-2.631746 4.60988,-3.993736 8.39175,-7.475 15.76125,-15.77875 15.4875,-24.8495 -0.2795,-9.2435 -5.68075,-14.595 -12.1545,-16.03175 -1.173818,-0.26065 -2.373378,-0.387542 -3.57575,-0.37825 l 2.5e-4,5e-4 v 0 c -5.5365,0.0425 -11.34875,2.9625 -15.25625,9.59 l -1.94575,3.3 -1.934,-3.307 c -4.86825,-8.3215 -13.5985,-10.90575 -20.5375,-8.9375 h -0.0025 c -6.1215,1.73675 -10.8465,6.73925 -10.57675,15.512 0.29675,9.6525 7.6505,17.713 15.845,24.9795 1.518923,1.346828 3.057771,2.66126 4.571999,3.952848" />
</svg>
