<?xml version="1.0" encoding="UTF-8" standalone="no"?>
<svg
   viewBox="0 0 128 128"
   version="1.1"
   id="svg6"
   sodipodi:docname="spiky-eclipse.svg"
   width="128"
   height="128"
   inkscape:version="1.1.1 (3bf5ae0d25, 2021-09-20)"
   xmlns:inkscape="http://www.inkscape.org/namespaces/inkscape"
   xmlns:sodipodi="http://sodipodi.sourceforge.net/DTD/sodipodi-0.dtd"
   xmlns="http://www.w3.org/2000/svg"
   xmlns:svg="http://www.w3.org/2000/svg">
  <defs
     id="defs10" />
  <sodipodi:namedview
     id="namedview8"
     pagecolor="#ffffff"
     bordercolor="#666666"
     borderopacity="1.0"
     inkscape:pageshadow="2"
     inkscape:pageopacity="0.0"
     inkscape:pagecheckerboard="0"
     showgrid="false"
     inkscape:zoom="3.4101562"
     inkscape:cx="185.18213"
     inkscape:cy="95.450172"
     inkscape:window-width="2560"
     inkscape:window-height="1417"
     inkscape:window-x="1912"
     inkscape:window-y="-8"
     inkscape:window-maximized="1"
     inkscape:current-layer="svg6" />
  <g
     class=""
     transform="matrix(0.25,0,0,0.25,-0.00280165,0.49744516)"
     id="g4"
     style="stroke-width:8;stroke-miterlimit:4;stroke-dasharray:none">
    <path
       d="m 159.182,17.115 14.882,129.483 -46.134,-25.303 37.46,72.914 c 18.642,-27.004 49.798,-44.702 85.094,-44.702 57.07,0 103.334,46.262 103.334,103.332 0,30.772 -13.454,58.398 -34.797,77.328 l 67.918,29.404 -26.258,-60.27 137.83,-15.784 -126.504,-44.65 81.853,-53.58 H 360.1 L 465.104,18.735 334.8,125.76 331.822,52.834 261.872,137.666 242.522,52.832 220.199,121.292 159.18,17.116 Z M 24.94,141.8 l 48.62,54.354 71.725,25.797 -51.588,-58.237 z m 122.23,112.72 -49.526,27.513 43.69,4.684 -76.457,95.18 90.5,-48.372 -82.702,160.72 124.83,-127.95 6.242,71.775 26.863,-83.812 c -47.03,-9.163 -82.65,-50.216 -83.44,-99.738 z m 155.935,87.263 c -12.105,7.178 -25.8,11.952 -40.433,13.672 l 75.08,136.164 -34.647,-149.837 z M 249.95,373.95 h -0.003 l -11.457,59.872 19.237,60.74 12.533,-63.812 z m 131.48,13.45 34.513,48.39 52.453,12.493 v -0.002 L 435.8,403.183 Z"
       fill="#ffffff"
       fill-opacity="1"
       stroke="#000000"
       stroke-opacity="1"
       stroke-width="2"
       id="path2"
       style="stroke-width:8;stroke-miterlimit:4;stroke-dasharray:none;stroke-linecap:butt;stroke-linejoin:round" />
  </g>
</svg>
